<?xml version="1.0" encoding="UTF-8"?>
<svg xmlns="http://www.w3.org/2000/svg" xmlns:xlink="http://www.w3.org/1999/xlink" width="404.2pt" height="217.2pt" viewBox="0 0 404.2 217.2" version="1.1">
<defs>
<clipPath id="clip1">
  <path d="M 295 0 L 404.199219 0 L 404.199219 127 L 295 127 Z M 295 0 "/>
</clipPath>
<clipPath id="clip2">
  <path d="M 93 148 L 277 148 L 277 217.199219 L 93 217.199219 Z M 93 148 "/>
</clipPath>
</defs>
<g id="surface1">
<g clip-path="url(#clip1)" clip-rule="nonzero">
<path style=" stroke:none;fill-rule:evenodd;fill:rgb(71.679688%,18.431091%,19.604492%);fill-opacity:1;" d="M 404.210938 -0.0546875 L 373.371094 -0.0546875 L 372.359375 4.679688 C 369.996094 15.699219 367.808594 27.414063 365.285156 38.238281 L 359.058594 37.234375 C 348.652344 35.945313 338.738281 38.578125 330.316406 44.109375 L 326.058594 47.078125 C 323.386719 49.078125 320.558594 51.597656 318.222656 53.925781 C 317.519531 54.621094 317.242188 55.136719 316.523438 55.84375 C 313.949219 58.371094 310.472656 63.136719 308.492188 66.105469 C 304.757813 71.710938 301.128906 78.472656 298.789063 85.539063 C 296.554688 92.289063 294.15625 102.230469 296.320313 110.613281 C 298.210938 117.917969 303.023438 123.839844 310.117188 125.964844 C 317.269531 128.101563 329.441406 125.210938 334.515625 122.765625 C 340.152344 120.054688 347.363281 115.238281 350.398438 109.503906 L 351.886719 109.503906 C 351.886719 111.273438 348.394531 123.101563 348.269531 124.609375 L 378.898438 124.609375 L 394.730469 46.835938 C 395.777344 41.585938 396.761719 36.515625 397.882813 31.269531 Z M 404.210938 -0.0546875 "/>
</g>
<path style=" stroke:none;fill-rule:evenodd;fill:rgb(71.679688%,18.431091%,19.604492%);fill-opacity:1;" d="M 237.023438 126.734375 C 250.78125 126.734375 262.839844 122.046875 273.398438 113.972656 C 274.121094 113.414063 274.773438 112.820313 275.492188 112.238281 C 278.652344 109.691406 282.28125 105.824219 284.792969 102.605469 C 287.492188 99.144531 290.234375 95.003906 292.183594 91.066406 C 295.496094 84.386719 298.707031 75.089844 298.707031 67.164063 C 298.707031 59.96875 297.964844 55.246094 293.757813 49.570313 C 292.25 47.539063 289.875 45.203125 287.820313 43.808594 C 286.210938 42.71875 284.789063 41.761719 283.042969 40.929688 C 277.601563 38.34375 270.269531 36.535156 264.25 36.535156 C 254.546875 36.535156 249.953125 37.121094 240.875 40.390625 C 239.003906 41.0625 234.902344 42.980469 233.070313 44.070313 C 220.628906 51.496094 212.105469 61.0625 205.828125 75.113281 C 204.5625 77.945313 203.769531 80.574219 202.800781 83.578125 C 201.851563 86.519531 201.355469 90.078125 200.917969 93.394531 L 200.679688 98.835938 C 201.300781 104.289063 201.644531 107.335938 204.898438 112.273438 C 209.589844 119.382813 218.3125 123.929688 226.511719 125.542969 C 229.703125 126.179688 233.324219 126.734375 237.023438 126.734375 Z M 237.023438 126.734375 "/>
<path style=" stroke:none;fill-rule:evenodd;fill:rgb(71.679688%,18.431091%,19.604492%);fill-opacity:1;" d="M 140.027344 126.734375 C 153.785156 126.734375 165.84375 122.046875 176.402344 113.972656 C 180.382813 110.925781 184.703125 106.570313 187.796875 102.605469 C 192.964844 95.980469 197.164063 88.433594 199.496094 80.269531 C 202.433594 69.976563 203.441406 58.585938 196.761719 49.570313 C 194.105469 45.988281 190.054688 42.835938 186.046875 40.929688 C 185.132813 40.496094 184.304688 40.164063 183.359375 39.789063 L 180.519531 38.796875 C 171.789063 35.953125 161.957031 35.921875 152.914063 37.722656 C 147.625 38.777344 142.652344 40.574219 138.042969 43.0625 L 134.324219 45.085938 C 133.679688 45.496094 133.183594 45.851563 132.539063 46.28125 C 131.273438 47.121094 130.261719 47.808594 129.054688 48.746094 C 120.25 55.621094 113.671875 64.28125 108.832031 75.113281 C 107.566406 77.945313 106.773438 80.574219 105.804688 83.578125 C 104.855469 86.519531 104.359375 90.078125 103.921875 93.394531 L 103.683594 98.835938 C 104.304688 104.289063 104.648438 107.335938 107.902344 112.273438 C 110.347656 115.976563 113.148438 118.296875 116.800781 120.605469 C 123.0625 124.558594 132.402344 126.734375 140.027344 126.734375 Z M 140.027344 126.734375 "/>
<path style=" stroke:none;fill-rule:evenodd;fill:rgb(71.679688%,18.431091%,19.604492%);fill-opacity:1;" d="M 65.152344 38.238281 L 54.304688 38.238281 L 51.804688 51.269531 C 51.605469 52.273438 51.203125 55.050781 50.902344 55.683594 L 61.535156 55.683594 L 56.855469 78.871094 C 56.53125 80.871094 56.070313 82.703125 55.671875 84.703125 C 55.25 86.804688 54.972656 88.621094 54.515625 90.570313 L 52.195313 102.289063 C 50.84375 109.058594 48.65625 118.914063 47.523438 125.484375 L 42.816406 148.859375 L 73.875 148.859375 C 73.875 147.40625 74.632813 144.527344 74.917969 143.097656 L 92.378906 55.46875 L 114.925781 55.46875 L 117.53125 42.546875 C 117.792969 41.226563 118.328125 39.589844 118.328125 38.023438 L 95.570313 38.023438 C 95.660156 36.960938 96.003906 35.425781 96.175781 34.378906 C 96.796875 30.59375 97.617188 27.703125 99.398438 24.410156 C 101.289063 20.898438 105.441406 18.242188 110.886719 18.242188 C 116.769531 18.242188 121.863281 18.472656 127.347656 20.285156 C 128.527344 20.675781 130.222656 21.554688 131.304688 21.644531 L 134.921875 3.5625 C 133.871094 3.058594 131.882813 2.535156 130.542969 2.199219 C 128.84375 1.773438 127.488281 1.421875 125.6875 1.101563 C 122.167969 0.46875 118.46875 0.0546875 114.746094 -0.0546875 L 110.867188 -0.0546875 C 104.769531 0.128906 98.738281 1.210938 93.4375 3.554688 C 89.167969 5.445313 83.828125 8.3125 80.519531 11.699219 C 77.371094 14.914063 76.007813 15.871094 73.277344 19.984375 C 69.617188 25.496094 66.761719 31.335938 65.152344 38.238281 Z M 65.152344 38.238281 "/>
<g clip-path="url(#clip2)" clip-rule="nonzero">
<path style=" stroke:none;fill-rule:evenodd;fill:rgb(71.679688%,18.431091%,19.604492%);fill-opacity:1;" d="M 235.109375 164.601563 C 234.546875 165.4375 232.699219 167.003906 231.757813 167.84375 L 230.003906 169.28125 C 225.675781 172.65625 223.148438 174.441406 218.292969 177.351563 L 211.835938 180.894531 C 210.125 181.597656 209.039063 182.277344 207.332031 182.988281 C 196.105469 187.648438 188.945313 190.179688 176.308594 191.953125 L 164.0625 192.898438 L 157.621094 192.527344 C 148.941406 191.398438 145.007813 191.03125 136.105469 187.457031 C 127.664063 184.066406 118.261719 178.253906 111.894531 171.886719 C 110.746094 170.734375 109.75 169.742188 108.597656 168.589844 C 103.65625 163.648438 99.414063 157.160156 96.277344 150.914063 C 95.058594 148.488281 96.121094 148.859375 93.230469 148.859375 C 93.253906 149.917969 93.707031 151.539063 93.953125 152.605469 C 95.800781 160.707031 99.042969 168.96875 103.214844 175.890625 C 104.375 177.8125 105.464844 179.621094 106.757813 181.496094 L 110.792969 186.816406 C 112.558594 189.082031 117.78125 194.695313 119.882813 196.449219 C 125.21875 200.910156 127.09375 202.527344 133.152344 206.152344 C 144.445313 212.910156 158.800781 217.148438 173.421875 217.148438 C 190.242188 217.148438 197.273438 216.328125 212.941406 211.996094 C 214.484375 211.570313 216.101563 210.96875 217.746094 210.417969 C 221.976563 209.011719 227.292969 206.6875 231.066406 204.808594 C 231.789063 204.449219 232.335938 204.132813 232.988281 203.753906 C 236.695313 201.597656 238.847656 200.609375 242.894531 197.914063 L 248.46875 193.914063 C 249.96875 192.902344 252.628906 190.339844 253.828125 189.703125 L 258.292969 202.46875 C 259.121094 204.539063 259.777344 206.71875 260.550781 208.933594 C 260.941406 210.050781 261.316406 211 261.667969 212.070313 C 262.011719 213.101563 262.671875 214.355469 262.761719 215.445313 L 263.1875 215.445313 C 263.1875 214.101563 273.597656 162.421875 275.46875 153.0625 C 275.664063 152.082031 276.074219 149.484375 276.375 148.859375 C 275.425781 148.839844 274.878906 148.636719 273.609375 148.644531 L 227.023438 148.644531 C 225.65625 148.644531 214.929688 148.480469 214.921875 148.480469 C 214.183594 148.671875 214.570313 148.742188 214.886719 149.03125 L 231.585938 161.742188 C 232.269531 162.257813 232.707031 162.644531 233.375 163.144531 C 233.972656 163.585938 234.726563 164.03125 235.109375 164.601563 Z M 235.109375 164.601563 "/>
</g>
<path style=" stroke:none;fill-rule:evenodd;fill:rgb(71.679688%,18.431091%,19.604492%);fill-opacity:1;" d="M 0.0625 124.609375 L 30.90625 124.609375 L 33.015625 113.953125 C 33.742188 110.316406 34.429688 106.664063 35.140625 103.105469 L 43.6875 59.953125 C 44.035156 58.210938 44.433594 56.414063 44.730469 54.617188 L 47.921875 38.238281 L 17.292969 38.238281 L 14.082031 54.171875 C 11.949219 64.738281 0.0976563 123.113281 0.0625 124.609375 Z M 0.0625 124.609375 "/>
<path style=" stroke:none;fill-rule:evenodd;fill:rgb(71.679688%,18.431091%,19.604492%);fill-opacity:1;" d="M 20.058594 25.050781 L 50.050781 25.050781 C 50.996094 25.050781 51.476563 20.785156 51.804688 19.144531 L 55.582031 -0.0546875 L 25.375 -0.0546875 C 24.433594 0.148438 24.847656 0.179688 24.402344 2.589844 L 20.574219 21.734375 C 20.378906 22.835938 20.058594 24.007813 20.058594 25.050781 Z M 20.058594 25.050781 "/>
</g>
</svg>
